<svg width="36" height="36" viewBox="0 0 36 36" fill="none" xmlns="http://www.w3.org/2000/svg">
<path d="M35.4613 22.3543C33.0573 31.9972 23.2905 37.8658 13.6465 35.4611C4.0064 33.0571 -1.86211 23.2897 0.54298 13.6476C2.94595 4.00354 12.7127 -1.86541 22.3538 0.538622C31.9972 2.94265 37.8654 12.7111 35.4611 22.3545L35.4612 22.3543H35.4613Z" fill="#F7931A"/>
<path fill-rule="evenodd" clip-rule="evenodd" d="M25.9388 15.4355C26.297 13.0401 24.4733 11.7525 21.9796 10.8935L22.7886 7.64871L20.8133 7.15654L20.0258 10.3159C19.5065 10.1864 18.9733 10.0644 18.4433 9.94338L19.2365 6.76317L17.2626 6.271L16.4531 9.51473C16.0234 9.41689 15.6014 9.3202 15.1919 9.21832L15.1942 9.20811L12.4703 8.52792L11.9449 10.6376C11.9449 10.6376 13.4103 10.9735 13.3795 10.9942C14.1793 11.1938 14.3239 11.7233 14.2999 12.1429L13.3784 15.8395C13.4335 15.8535 13.5049 15.8737 13.5837 15.9054L13.5263 15.8911C13.4776 15.8789 13.427 15.8662 13.375 15.8538L12.0833 21.0321C11.9855 21.2752 11.7374 21.6398 11.1782 21.5014C11.198 21.53 9.74261 21.1431 9.74261 21.1431L8.76196 23.4041L11.3324 24.0448C11.6138 24.1154 11.8919 24.1879 12.1671 24.2597L12.1674 24.2597L12.1676 24.2598C12.36 24.3099 12.5509 24.3597 12.7406 24.4082L11.9233 27.6902L13.8962 28.1824L14.7056 24.9352C15.2446 25.0815 15.7676 25.2165 16.2797 25.3437L15.473 28.5756L17.4483 29.0678L18.2656 25.7919C21.6337 26.4293 24.1663 26.1723 25.2323 23.1259C26.0912 20.6731 25.1895 19.2583 23.4175 18.3358C24.7082 18.0381 25.6803 17.1893 25.9395 15.4358L25.9389 15.4353L25.9388 15.4355ZM21.4257 21.7637C20.8656 24.0141 17.3432 23.0837 15.7316 22.6581L15.7316 22.658C15.5866 22.6198 15.4571 22.5856 15.3466 22.5581L16.4313 18.21C16.5659 18.2436 16.7305 18.2806 16.9169 18.3224L16.917 18.3224C18.584 18.6965 21.9995 19.463 21.4258 21.7637H21.4257ZM17.2514 16.3044C18.595 16.663 21.5261 17.4452 22.0366 15.4H22.0367C22.558 13.3081 19.7095 12.6775 18.3182 12.3695C18.1617 12.3348 18.0237 12.3042 17.9109 12.2761L16.9275 16.2196C17.0204 16.2427 17.1293 16.2718 17.2514 16.3044Z" fill="white"/>
</svg>
