<svg width="11" height="11" viewBox="0 0 11 11" fill="none" xmlns="http://www.w3.org/2000/svg">
<path d="M5.27486 10.2569C3.93146 10.2581 2.64273 9.72493 1.69279 8.775C0.742861 7.82507 0.209731 6.53634 0.21094 5.19293V5.09165C0.252356 3.06214 1.50113 1.25328 3.38418 0.495161C5.26723 -0.262956 7.42099 0.176049 8.85708 1.61071C10.3066 3.05904 10.7404 5.23817 9.95612 7.13121C9.17181 9.02426 7.32395 10.2581 5.27486 10.2569ZM5.27486 5.90694L6.58642 7.2185L7.30043 6.50449L5.98888 5.19293L7.30043 3.88138L6.58642 3.16736L5.27486 4.47892L3.96331 3.16736L3.2493 3.88138L4.56085 5.19293L3.2493 6.50449L3.96331 7.2185L5.27486 5.90745V5.90694Z" fill="#787A8D"/>
</svg>
