<svg width="24" height="24" viewBox="0 0 24 24" fill="none" xmlns="http://www.w3.org/2000/svg">
<path d="M17.3333 7.95264H6.66663C6.01207 7.95264 5.48145 8.48326 5.48145 9.13782V14.8623C5.48145 15.5168 6.01207 16.0475 6.66663 16.0475H17.3333C17.9879 16.0475 18.5185 15.5168 18.5185 14.8623V9.13782C18.5185 8.48326 17.9879 7.95264 17.3333 7.95264Z" stroke="#FEBD11" stroke-width="1.5" stroke-linecap="round" stroke-linejoin="round"/>
<path d="M12 13.3511C12.7462 13.3511 13.3511 12.7462 13.3511 12C13.3511 11.2538 12.7462 10.6489 12 10.6489C11.2538 10.6489 10.6489 11.2538 10.6489 12C10.6489 12.7462 11.2538 13.3511 12 13.3511Z" stroke="#FEBD11" stroke-linecap="round" stroke-linejoin="round"/>
<path d="M15.8223 7.95264C15.8223 8.66774 16.1063 9.35355 16.612 9.85921C17.1176 10.3649 17.8035 10.6489 18.5186 10.6489" stroke="#FEBD11" stroke-linecap="round" stroke-linejoin="round"/>
<path d="M5.48145 10.6489C6.19655 10.6489 6.88236 10.3649 7.38801 9.85921C7.89367 9.35355 8.17774 8.66774 8.17774 7.95264" stroke="#FEBD11" stroke-width="1.5" stroke-linecap="round" stroke-linejoin="round"/>
<path d="M15.8223 16.0474C15.8223 15.3323 16.1063 14.6465 16.612 14.1408C17.1176 13.6351 17.8035 13.3511 18.5186 13.3511" stroke="#FEBD11" stroke-width="1.5" stroke-linecap="round" stroke-linejoin="round"/>
<path d="M5.48145 13.3511C6.19655 13.3511 6.88236 13.6351 7.38801 14.1408C7.89367 14.6465 8.17774 15.3323 8.17774 16.0474" stroke="#FEBD11" stroke-width="1.5" stroke-linecap="round" stroke-linejoin="round"/>
</svg>
