<svg width="34" height="30" viewBox="0 0 34 30" fill="none" xmlns="http://www.w3.org/2000/svg">
<path d="M31.7529 12.8376H31.0203V11.9788C31.0203 9.30803 29.4927 6.99098 27.2655 5.84212C27.1313 2.60143 24.473 0 21.1993 0H3.56146C1.61409 0 0.0318495 1.57314 0.00796235 3.51482C0.00796235 3.52847 0 3.53985 0 3.55236V3.5626V3.56487V3.56715V23.0898C0 26.9004 3.10419 30 6.92159 30H24.109C27.9195 30 31.0192 26.9004 31.0192 23.0898V22.223H31.7529C32.9358 22.223 33.8982 21.2607 33.8982 20.0777V14.9829C33.8982 13.8 32.9358 12.8376 31.7529 12.8376ZM3.56146 2.04633H21.1982C23.1034 2.04633 24.6959 3.37491 25.1213 5.1528C24.7858 5.10275 24.4457 5.06863 24.0976 5.06863H3.57056C3.56715 5.06863 3.56487 5.06749 3.5626 5.06749C2.72996 5.06749 2.05202 4.38955 2.05202 3.55691C2.05202 2.72427 2.72996 2.04633 3.56146 2.04633ZM28.9729 23.0909C28.9729 25.772 26.7912 27.9537 24.1101 27.9537H6.92273C4.23485 27.9537 2.04861 25.772 2.04861 23.0909V6.7794C2.50246 6.99325 3.05869 7.11496 3.56146 7.11496H24.0987C26.7866 7.11496 28.9729 9.29666 28.9729 11.9777V12.8365H24.895C22.3083 12.8365 20.2029 14.942 20.2029 17.5286C20.2029 20.1153 22.3083 22.2207 24.895 22.2207H28.9729V23.0909ZM31.8507 20.0777C31.8507 20.1312 31.8063 20.1756 31.7529 20.1756H24.8938C23.4356 20.1756 22.2492 18.9892 22.2492 17.5309C22.2492 16.0726 23.4356 14.8851 24.8938 14.8851H31.7529C31.8063 14.8851 31.8507 14.9295 31.8507 14.9829V20.0777Z" fill="#D6B968"/>
<path d="M24.7301 16.3906C24.0999 16.3906 23.5903 16.9014 23.5903 17.5304C23.5903 18.1594 24.1011 18.6701 24.7301 18.6701C25.3603 18.6701 25.8698 18.1594 25.8698 17.5304C25.8698 16.9014 25.3603 16.3906 24.7301 16.3906Z" fill="#D6B968"/>
<circle opacity="0.2" cx="21.4357" cy="17.4479" r="12.4626" fill="#D6B968"/>
</svg>
