<svg width="18" height="15" viewBox="0 0 18 15" fill="none" xmlns="http://www.w3.org/2000/svg">
<path d="M0 0.9375C0 0.419063 0.4032 0 0.9 0H12.6C13.0968 0 13.5 0.419063 13.5 0.9375C13.5 1.45594 13.0968 1.875 12.6 1.875H0.9C0.4032 1.875 0 1.45594 0 0.9375ZM17.1 6.5625H0.9C0.4032 6.5625 0 6.98156 0 7.5C0 8.01844 0.4032 8.4375 0.9 8.4375H17.1C17.5968 8.4375 18 8.01844 18 7.5C18 6.98156 17.5968 6.5625 17.1 6.5625ZM9 13.125H0.9C0.4032 13.125 0 13.5441 0 14.0625C0 14.5809 0.4032 15 0.9 15H9C9.4968 15 9.9 14.5809 9.9 14.0625C9.9 13.5441 9.4968 13.125 9 13.125Z" fill="white"/>
</svg>
