<svg width="32" height="30" viewBox="0 0 32 30" fill="none" xmlns="http://www.w3.org/2000/svg">
<circle opacity="0.2" cx="19.8245" cy="17.891" r="12.0882" fill="#D6B968"/>
<path d="M31.4401 16.4971C30.9981 15.9197 30.3279 15.5846 29.6008 15.5846H29.394C29.3441 15.5846 29.3013 15.5846 29.2514 15.5846C29.5437 14.5223 29.6934 13.4244 29.6934 12.3051C29.6934 5.51806 24.1754 0 17.3883 0C10.6084 0 5.0903 5.52519 5.0903 12.3051C5.0903 14.9501 5.93156 17.4881 7.47861 19.5913C7.09363 19.7125 6.70865 19.8479 6.3308 20.0048V19.9049C6.3308 19.3988 5.92443 18.9924 5.41825 18.9924H0.912548C0.406369 18.9924 0 19.3988 0 19.9049V29.0875C0 29.5936 0.406369 30 0.912548 30H5.41825C5.92443 30 6.3308 29.5936 6.3308 29.0875V28.8379L14.3156 29.722C14.722 29.7647 15.1212 29.7861 15.5276 29.7861C16.2191 29.7861 16.9035 29.722 17.5879 29.5936L21.4092 28.8664C22.9491 28.5741 24.4463 28.0822 25.8579 27.4121L27.1055 26.8203C28.731 26.0504 29.9644 24.6174 30.4919 22.8992L31.8251 18.5361C31.8251 18.529 31.8322 18.5219 31.8322 18.5147C32.0176 17.8161 31.8821 17.0817 31.4401 16.4971ZM6.9154 12.3051C6.9154 6.52329 11.6136 1.82509 17.3954 1.82509C23.1702 1.82509 27.8755 6.52329 27.8755 12.3051C27.8755 13.7666 27.576 15.1782 26.9986 16.5043C26.6421 16.818 26.3498 17.2029 26.1431 17.645L25.2091 19.6198C24.8384 20.3969 24.1469 20.9529 23.3127 21.1383L21.1312 21.6302C20.4182 20.0475 18.8427 18.9924 17.0532 18.9924H11.4425C10.7723 18.9924 10.1093 19.0423 9.45342 19.1421C7.81369 17.2386 6.9154 14.8289 6.9154 12.3051ZM4.5057 28.1749H1.8251V20.8175H4.5057V28.1749ZM30.0713 18.0157L28.7452 22.3645C28.3674 23.5979 27.4905 24.6174 26.3213 25.1735L25.0737 25.7652C23.7975 26.3712 22.4501 26.8132 21.067 27.077L17.2457 27.8042C16.3474 27.9753 15.4278 28.0109 14.5223 27.9111L6.3308 26.9986V21.9938L6.68726 21.837C8.19154 21.1597 9.7885 20.8175 11.4425 20.8175H17.0532C18.1797 20.8175 19.1635 21.5162 19.5413 22.5499H13.3817C12.8755 22.5499 12.4691 22.9563 12.4691 23.4625C12.4691 23.9686 12.8755 24.375 13.3817 24.375H19.8194C20.3256 24.375 20.789 24.1469 21.1027 23.7476C21.174 23.6549 21.2381 23.5623 21.2809 23.4553L23.712 22.9135C25.1022 22.5998 26.25 21.6873 26.8631 20.3969L27.7971 18.4221C28.0894 17.8018 28.7239 17.4026 29.4083 17.4026H29.615C29.8218 17.4026 29.943 17.5238 30 17.5951C30.0428 17.6735 30.1212 17.8161 30.0713 18.0157Z" fill="#D6B968"/>
<path d="M17.3955 15.1508C16.8608 15.1508 16.433 14.7159 16.433 14.1883C16.433 13.6821 16.0266 13.2758 15.5205 13.2758C15.0143 13.2758 14.6079 13.6821 14.6079 14.1883C14.6079 15.4074 15.3921 16.4483 16.4829 16.8261V17.5676C16.4829 18.0738 16.8893 18.4801 17.3955 18.4801C17.9016 18.4801 18.308 18.0738 18.308 17.5676V16.8261C19.3988 16.4483 20.183 15.4074 20.183 14.1883C20.183 12.6484 18.9283 11.4008 17.3955 11.4008C16.8608 11.4008 16.433 10.9659 16.433 10.4383C16.433 9.91074 16.8679 9.47586 17.3955 9.47586C17.923 9.47586 18.3579 9.91074 18.3579 10.4383C18.3579 10.9445 18.7643 11.3509 19.2705 11.3509C19.7766 11.3509 20.183 10.9445 20.183 10.4383C20.183 9.2192 19.3988 8.17833 18.308 7.80048V7.05903C18.308 6.55285 17.9016 6.14648 17.3955 6.14648C16.8893 6.14648 16.4829 6.55285 16.4829 7.05903V7.80048C15.3921 8.17833 14.6079 9.2192 14.6079 10.4383C14.6079 11.9782 15.8627 13.2259 17.3955 13.2259C17.9302 13.2259 18.3579 13.6607 18.3579 14.1883C18.3579 14.7159 17.9302 15.1508 17.3955 15.1508Z" fill="#D6B968"/>
</svg>
