<svg width="30" height="30" viewBox="0 0 30 30" fill="none" xmlns="http://www.w3.org/2000/svg">
<circle opacity="0.2" cx="17.5" cy="17.5" r="12.5" fill="#D6B968"/>
<path d="M6.62762 20.2323C6.42078 20.2321 6.21862 20.1707 6.04669 20.0556C5.87477 19.9406 5.74077 19.7773 5.66164 19.5862C5.58251 19.395 5.56179 19.1848 5.60209 18.9819C5.64239 18.779 5.74192 18.5926 5.88809 18.4463L11.4695 12.8649C11.6405 12.6939 11.8654 12.5873 12.106 12.5634C12.3467 12.5395 12.5882 12.5997 12.7895 12.7337L16.2555 15.0486L22.6323 8.67882C22.8307 8.49397 23.093 8.39333 23.3642 8.39811C23.6353 8.4029 23.894 8.51273 24.0857 8.70447C24.2774 8.8962 24.3873 9.15488 24.3921 9.426C24.3968 9.69712 24.2962 9.95951 24.1113 10.1579L17.1346 17.1346C16.9635 17.3054 16.7386 17.4118 16.498 17.4357C16.2574 17.4596 16.016 17.3996 15.8146 17.2658L12.3486 14.9509L7.36716 19.9253C7.27035 20.0229 7.15513 20.1003 7.02818 20.153C6.90123 20.2057 6.76508 20.2326 6.62762 20.2323Z" fill="#D6B968"/>
<path d="M23.3721 30H6.62791C4.87076 29.9978 3.18621 29.2988 1.94372 28.0563C0.701222 26.8138 0.00221536 25.1292 0 23.3721V6.62791C0.00221536 4.87076 0.701222 3.18621 1.94372 1.94372C3.18621 0.701222 4.87076 0.00221536 6.62791 0H23.3721C25.1292 0.00221536 26.8138 0.701222 28.0563 1.94372C29.2988 3.18621 29.9978 4.87076 30 6.62791V23.3721C29.9978 25.1292 29.2988 26.8138 28.0563 28.0563C26.8138 29.2988 25.1292 29.9978 23.3721 30ZM6.62791 2.09302C5.42563 2.0945 4.27303 2.57276 3.42289 3.42289C2.57276 4.27303 2.0945 5.42563 2.09302 6.62791V23.3721C2.0945 24.5744 2.57276 25.727 3.42289 26.5771C4.27303 27.4272 5.42563 27.9055 6.62791 27.907H23.3721C24.5744 27.9055 25.727 27.4272 26.5771 26.5771C27.4272 25.727 27.9055 24.5744 27.907 23.3721V6.62791C27.9055 5.42563 27.4272 4.27303 26.5771 3.42289C25.727 2.57276 24.5744 2.0945 23.3721 2.09302H6.62791Z" fill="#D6B968"/>
<path d="M23.3722 14.6516C23.0947 14.6516 22.8285 14.5414 22.6322 14.3451C22.436 14.1489 22.3257 13.8827 22.3257 13.6051V10.4656H19.1862C18.9086 10.4656 18.6424 10.3553 18.4462 10.1591C18.2499 9.96281 18.1396 9.69662 18.1396 9.41907C18.1396 9.14152 18.2499 8.87533 18.4462 8.67907C18.6424 8.48282 18.9086 8.37256 19.1862 8.37256H23.3722C23.6498 8.37256 23.9159 8.48282 24.1122 8.67907C24.3085 8.87533 24.4187 9.14152 24.4187 9.41907V13.6051C24.4187 13.8827 24.3085 14.1489 24.1122 14.3451C23.9159 14.5414 23.6498 14.6516 23.3722 14.6516Z" fill="#D6B968"/>
</svg>
