<svg width="15" height="15" viewBox="0 0 15 15" fill="none" xmlns="http://www.w3.org/2000/svg">
<path d="M12.5623 5.41986L13.6994 6.55698C14.2335 7.09105 14.2335 7.95973 13.6994 8.4938L12.5623 9.63092C12.4436 9.74961 12.2879 9.80898 12.1324 9.80898C11.977 9.80898 11.8213 9.7496 11.7026 9.63094L12.5623 5.41986ZM12.5623 5.41986C12.3249 5.18247 11.94 5.18243 11.7026 5.41984M12.5623 5.41986L11.7026 5.41984M11.7026 5.41984C11.7026 5.41985 11.7026 5.41986 11.7026 5.41988C11.4652 5.65719 11.4652 6.04205 11.7026 6.27936C11.7026 6.27936 11.7026 6.27937 11.7026 6.27938L12.3408 6.91758H6.48462C6.14889 6.91758 5.87678 7.18967 5.87678 7.52539C5.87678 7.86111 6.14889 8.1332 6.48462 8.1332H12.3408L11.7026 8.7714C11.7026 8.77141 11.7026 8.77142 11.7026 8.77142C11.4652 9.00874 11.4652 9.39361 11.7026 9.63092L11.7026 5.41984ZM10.2664 11.9688V10.9531C10.2664 10.6174 9.99431 10.3453 9.65858 10.3453C9.32286 10.3453 9.05075 10.6174 9.05075 10.9531V11.9688C9.05075 12.4735 8.63986 12.8844 8.13508 12.8844H3.03134C2.52656 12.8844 2.11567 12.4735 2.11567 11.9688V3.03125C2.11567 2.5265 2.52656 2.11563 3.03134 2.11563H8.13508C8.63986 2.11563 9.05075 2.5265 9.05075 3.03125V4.04688C9.05075 4.38259 9.32286 4.65469 9.65858 4.65469C9.99431 4.65469 10.2664 4.38259 10.2664 4.04688V3.03125C10.2664 1.85595 9.31042 0.9 8.13508 0.9H3.03134C1.856 0.9 0.9 1.85595 0.9 3.03125V11.9688C0.9 13.144 1.856 14.1 3.03134 14.1H8.13508C9.31042 14.1 10.2664 13.144 10.2664 11.9688Z" fill="#FEBD11" stroke="#FEBD11" stroke-width="0.2"/>
</svg>
