<svg width="20" height="20" viewBox="0 0 20 20" fill="none" xmlns="http://www.w3.org/2000/svg">
<path d="M8.31055 7.53362V16.541C8.31055 17.4288 9.03021 18.1484 9.91795 18.1484H10.0735C10.9613 18.1484 11.6809 17.4288 11.6809 16.541V7.53362C11.6809 6.64588 10.9613 5.92622 10.0735 5.92622H9.91795C9.03021 5.92622 8.31055 6.64588 8.31055 7.53362Z" stroke="#787A8D" stroke-width="1.5" stroke-linecap="round" stroke-linejoin="round"/>
<path d="M14.77 3.45955L14.77 16.541C14.77 17.4288 15.4897 18.1484 16.3774 18.1484H16.533C17.4207 18.1484 18.1404 17.4288 18.1404 16.541V3.45955C18.1404 2.5718 17.4207 1.85214 16.533 1.85214H16.3774C15.4897 1.85214 14.77 2.5718 14.77 3.45955Z" stroke="#787A8D" stroke-width="1.5" stroke-linecap="round" stroke-linejoin="round"/>
<path d="M1.85156 12.4521L1.85156 16.541C1.85156 17.4288 2.57122 18.1484 3.45897 18.1484H3.61453C4.50227 18.1484 5.22193 17.4288 5.22193 16.541V12.4521C5.22193 11.5644 4.50227 10.8447 3.61453 10.8447H3.45897C2.57122 10.8447 1.85156 11.5644 1.85156 12.4521Z" stroke="#787A8D" stroke-width="1.5" stroke-linecap="round" stroke-linejoin="round"/>
</svg>
