<svg width="24" height="24" viewBox="0 0 24 24" fill="none" xmlns="http://www.w3.org/2000/svg">
<path d="M16.0865 18.3118V18.3752C16.0865 19.3366 15.7087 20.2586 15.0361 20.9383C14.3635 21.6181 13.4512 22 12.5 22C11.5489 22 10.6366 21.6181 9.96403 20.9383C9.29143 20.2586 8.91357 19.3366 8.91357 18.3752V18.3118" stroke="white" stroke-linecap="round" stroke-linejoin="round"/>
<path d="M20.9999 12.929V16.9525C20.9953 17.3085 20.8546 17.6489 20.6072 17.9023C20.3599 18.1557 20.025 18.3025 19.6729 18.3118H5.32699C4.97487 18.3025 4.64001 18.1557 4.39261 17.9023C4.14522 17.6489 4.00451 17.3085 4 16.9525V12.784C3.99984 11.6435 4.22436 10.5144 4.66046 9.46255C5.09657 8.4107 5.73553 7.45713 6.54008 6.65748C7.34463 5.85782 8.29866 5.22807 9.34653 4.80497C10.3944 4.38186 11.5152 4.17387 12.6434 4.19312C14.8894 4.25702 17.0215 5.20697 18.5833 6.83965C20.1451 8.47233 21.0125 10.658 20.9999 12.929V12.929Z" stroke="white" stroke-width="1.5" stroke-miterlimit="10"/>
<path d="M16.6232 11.6239C16.6232 10.6216 16.2293 9.66046 15.5281 8.95178C14.8269 8.2431 13.8759 7.84497 12.8843 7.84497" stroke="white" stroke-width="1.5" stroke-linecap="round" stroke-linejoin="round"/>
<path d="M12.6162 4.19302V2" stroke="white" stroke-width="1.5" stroke-linecap="round" stroke-linejoin="round"/>
</svg>
