<svg width="24" height="24" viewBox="0 0 24 24" fill="none" xmlns="http://www.w3.org/2000/svg">
<path d="M19.0296 12.5705C19.0281 14.069 18.5824 15.5333 17.7489 16.7785C16.9153 18.0237 15.7313 18.9938 14.3466 19.5662C12.9618 20.1386 11.4384 20.2876 9.96891 19.9944C8.49946 19.7012 7.14992 18.9789 6.09089 17.9188C5.03186 16.8587 4.31088 15.5085 4.01909 14.0388C3.7273 12.569 3.8778 11.0458 4.45156 9.66153C5.02532 8.2773 5.99659 7.09425 7.24258 6.26192C8.48858 5.42959 9.95337 4.98535 11.4518 4.98535V12.5705H19.0296Z" stroke="#787A8D" stroke-width="1.5" stroke-linecap="round" stroke-linejoin="round"/>
<path d="M20.148 9.31131H14.6221V3.85205C15.9554 4.16744 17.1762 4.84361 18.1508 5.80652C19.1255 6.76942 20.1684 7.98194 20.5 9.31131H20.148Z" stroke="#787A8D" stroke-width="1.5" stroke-linecap="round" stroke-linejoin="round"/>
</svg>
