<svg width="14" height="14" viewBox="0 0 14 14" fill="none" xmlns="http://www.w3.org/2000/svg">
<path d="M10.476 6.47976C10.4686 7.22218 10.2751 7.95089 9.91334 8.59923C9.50177 9.35118 8.88344 9.96952 8.13149 10.3811C7.27292 10.8422 6.28673 11.0086 5.32438 10.855C4.36203 10.7013 3.47674 10.2359 2.80448 9.53039C2.13221 8.82484 1.71015 7.91812 1.6031 6.94947C1.49606 5.98083 1.70996 5.00382 2.21195 4.16852C2.71393 3.33321 3.47625 2.68578 4.38182 2.32568C5.28739 1.96558 6.28614 1.91271 7.22467 2.17519C8.1632 2.43767 8.98961 3.00099 9.57698 3.77863C10.1644 4.55627 10.4802 5.50523 10.476 6.47976Z" stroke="#787A8D" stroke-width="0.949541" stroke-miterlimit="10" stroke-linecap="square"/>
<path d="M11.5169 11.9849C11.4018 12.101 11.2648 12.1932 11.1139 12.2561C10.963 12.319 10.8012 12.3513 10.6377 12.3513C10.4742 12.3513 10.3123 12.319 10.1614 12.2561C10.0105 12.1932 9.87355 12.101 9.75846 11.9849L8.13135 10.3812C8.8833 9.96965 9.50163 9.35131 9.9132 8.59937L11.5169 10.2077C11.6358 10.3231 11.7304 10.4612 11.795 10.6139C11.8596 10.7665 11.8929 10.9306 11.8929 11.0963C11.8929 11.2621 11.8596 11.4261 11.795 11.5787C11.7304 11.7314 11.6358 11.8695 11.5169 11.9849V11.9849Z" stroke="#787A8D" stroke-width="0.949541" stroke-linecap="round" stroke-linejoin="round"/>
<path d="M3.85498 6.28279C3.85498 5.76296 4.06148 5.26442 4.42906 4.89684C4.79664 4.52926 5.29519 4.32275 5.81502 4.32275" stroke="#787A8D" stroke-width="0.949541" stroke-linecap="round" stroke-linejoin="round"/>
</svg>
