<svg width="17" height="15" viewBox="0 0 17 15" fill="none" xmlns="http://www.w3.org/2000/svg">
<path d="M11.0898 1.00203C10.9721 0.562949 10.6417 0.212762 10.211 0.0692041C9.78037 -0.0743543 9.30585 0.00853711 8.94905 0.289047C7.00411 1.81773 3.098 4.88772 3.098 4.88772C2.95624 4.99944 2.89437 5.18445 2.94123 5.35864L4.13895 9.82817C4.1852 10.0024 4.33116 10.1321 4.50956 10.1573C4.50956 10.1573 9.42778 10.8631 11.8767 11.2145C12.326 11.2794 12.7777 11.1136 13.0792 10.7736C13.3807 10.4342 13.4913 9.96572 13.3741 9.52724C12.7981 7.37927 11.6653 3.15 11.0898 1.00203ZM10.2195 1.23509C10.7949 3.38306 11.9277 7.61233 12.5038 9.7603C12.5428 9.90626 12.5062 10.0624 12.4053 10.176C12.305 10.2889 12.1542 10.3441 12.0046 10.3225L4.93182 9.308L3.88847 5.4127L9.50587 0.997228C9.6248 0.904125 9.78277 0.876495 9.92633 0.923947C10.0699 0.972 10.1798 1.08853 10.2195 1.23509Z" fill="#D4B766"/>
<path d="M3.8117 5.12633C3.74682 4.88607 3.49995 4.74311 3.25969 4.80738C3.25969 4.80738 2.13825 5.10831 1.22464 5.35278C0.801173 5.46631 0.440175 5.74321 0.221534 6.12283C0.00229185 6.50185 -0.0571737 6.95295 0.0563516 7.37581C0.233547 8.03714 0.454591 8.86365 0.631786 9.52498C0.745312 9.94785 1.02222 10.3088 1.40184 10.5275C1.78085 10.7467 2.23195 10.8062 2.65542 10.6927C3.56903 10.4476 4.69046 10.1473 4.69046 10.1473C4.93073 10.083 5.07369 9.83613 5.00882 9.59586L3.8117 5.12633ZM3.05786 5.79427L4.02193 9.39344L2.42176 9.82231C2.22955 9.87397 2.02472 9.84694 1.85233 9.74723C1.67994 9.64812 1.5538 9.48414 1.50215 9.29133L0.926712 7.14276C0.875055 6.95054 0.902085 6.74572 1.00179 6.57333C1.1009 6.40094 1.26549 6.2748 1.4577 6.22314L3.05786 5.79427Z" fill="#D4B766"/>
<path d="M5.38045 9.37376C5.23028 9.35213 5.07952 9.40739 4.97921 9.52032C4.8789 9.63384 4.84166 9.79002 4.8813 9.93598L5.47596 12.1566C5.53662 12.3825 5.75947 12.5242 5.99012 12.4834C6.04959 12.4732 6.10905 12.46 6.16912 12.4437C7.2425 12.156 7.90083 11.0905 7.70141 10.0159C7.66597 9.82606 7.5134 9.67949 7.32239 9.65246L5.38045 9.37376ZM6.22138 11.4563L5.92825 10.3624L6.83225 10.4922C6.80222 10.8922 6.57337 11.2568 6.22138 11.4563Z" fill="#D4B766"/>
<path d="M5.75123 9.70124C5.70498 9.52705 5.55902 9.3973 5.38062 9.37207L4.6382 9.26516C4.57753 9.25675 4.51627 9.26035 4.4574 9.27597L2.88847 9.69643C2.76413 9.73007 2.66022 9.81476 2.60255 9.92949C2.54489 10.0448 2.53888 10.1788 2.58694 10.2983C2.58694 10.2983 3.60386 12.8511 4.12103 14.1509C4.37391 14.7858 5.06227 15.1312 5.7224 14.954C6.46301 14.7558 6.9021 13.9948 6.70388 13.2548L5.75123 9.70124ZM4.95835 10.2214L5.83352 13.4878C5.9032 13.7473 5.74883 14.014 5.48934 14.0837C5.2701 14.1425 5.04185 14.0284 4.95835 13.8176L3.61107 10.4358L4.60156 10.1704L4.95835 10.2214Z" fill="#D4B766"/>
<path d="M15.777 4.00465L14.0345 4.47196C13.7942 4.53623 13.6518 4.7831 13.7161 5.02337C13.7804 5.26363 14.0279 5.40659 14.2675 5.34172L16.01 4.87501C16.2503 4.81073 16.3933 4.56326 16.329 4.3236C16.2641 4.08333 16.0173 3.94037 15.777 4.00465Z" fill="#D4B766"/>
<path d="M14.0266 0.731629L12.5766 1.80441C12.3766 1.95278 12.3345 2.23509 12.4823 2.43451C12.6301 2.63453 12.9124 2.67718 13.1124 2.52881L14.5624 1.45603C14.7624 1.30827 14.8045 1.02595 14.6567 0.825933C14.5089 0.626513 14.2266 0.583866 14.0266 0.731629Z" fill="#D4B766"/>
<path d="M16.1844 7.70496L14.3956 7.4725C14.1488 7.44067 13.9229 7.61486 13.8905 7.86173C13.8586 8.108 14.0328 8.33445 14.2797 8.36629L16.0685 8.59815C16.3147 8.62998 16.5412 8.45579 16.573 8.20952C16.6049 7.96264 16.4307 7.7368 16.1844 7.70496Z" fill="#D4B766"/>
</svg>
