<svg width="16" height="16" viewBox="0 0 16 16" fill="none" xmlns="http://www.w3.org/2000/svg">
<g clip-path="url(#clip0_717_492)">
<path d="M9.28591 2.66673L9.8785 4.55118C9.96625 4.8232 10.138 5.06038 10.3691 5.22862C10.6001 5.39686 10.8786 5.48749 11.1644 5.48747H13.1437C13.4299 5.48655 13.7089 5.57651 13.9407 5.74439C14.1724 5.91227 14.3449 6.1494 14.4332 6.4216C14.5215 6.6938 14.5211 6.98702 14.4321 7.25898C14.3431 7.53095 14.17 7.76762 13.9378 7.93488L12.3318 9.09044C12.1009 9.25962 11.9292 9.49721 11.8409 9.76951C11.7526 10.0418 11.7523 10.335 11.84 10.6075L12.4326 12.4919C12.5165 12.7608 12.5143 13.0493 12.4262 13.3169C12.3382 13.5845 12.1687 13.8179 11.9414 13.9844C11.7142 14.1509 11.4406 14.2422 11.1589 14.2456C10.8772 14.2489 10.6015 14.1641 10.3704 14.003L8.77035 12.8178C8.54063 12.6475 8.26224 12.5556 7.97628 12.5556C7.69031 12.5556 7.41192 12.6475 7.1822 12.8178L5.5822 14.003C5.35135 14.1712 5.07315 14.2619 4.78755 14.262C4.50194 14.2622 4.22363 14.1719 3.99257 14.004C3.7615 13.8362 3.58958 13.5994 3.50148 13.3277C3.41337 13.056 3.41363 12.7634 3.5022 12.4919L4.09479 10.6075C4.1825 10.335 4.18219 10.0418 4.09391 9.76951C4.00562 9.49721 3.83385 9.25962 3.60294 9.09044L2.07405 7.93488C1.84381 7.76913 1.67158 7.53511 1.58179 7.26599C1.492 6.99688 1.48919 6.70633 1.57378 6.43553C1.65836 6.16473 1.82604 5.92743 2.05304 5.75727C2.28004 5.5871 2.55485 5.49271 2.8385 5.48747H4.81776C5.10285 5.48789 5.38076 5.39813 5.61174 5.23102C5.84271 5.06391 6.01491 4.82802 6.10368 4.5571L6.71405 2.66673C6.80177 2.39467 6.97351 2.15744 7.20458 1.98916C7.43565 1.82088 7.71413 1.73022 7.99998 1.73022C8.28583 1.73022 8.56431 1.82088 8.79538 1.98916C9.02645 2.15744 9.19819 2.39467 9.28591 2.66673V2.66673Z" stroke="#FEBD11" stroke-width="2" stroke-linecap="round" stroke-linejoin="round"/>
</g>
<defs>
<clipPath id="clip0_717_492">
<rect width="16" height="16" fill="white"/>
</clipPath>
</defs>
</svg>
