<svg width="30" height="30" viewBox="0 0 30 30" fill="none" xmlns="http://www.w3.org/2000/svg">
<path d="M8 15C8 13.344 6.656 12 5 12H3C1.344 12 0 13.344 0 15V19C0 20.656 1.344 22 3 22H5C6.656 22 8 20.656 8 19V15ZM6 15V19C6 19.552 5.552 20 5 20H3C2.448 20 2 19.552 2 19V15C2 14.448 2.448 14 3 14H5C5.552 14 6 14.448 6 15Z" fill="#D6B968"/>
<path d="M30 15C30 13.344 28.656 12 27 12H25C23.344 12 22 13.344 22 15V19C22 20.656 23.344 22 25 22H27C28.656 22 30 20.656 30 19V15ZM28 15V19C28 19.552 27.552 20 27 20H25C24.448 20 24 19.552 24 19V15C24 14.448 24.448 14 25 14H27C27.552 14 28 14.448 28 15Z" fill="#D6B968"/>
<path d="M27 13V12C27 5.377 21.623 0 15 0C8.377 0 3 5.377 3 12V13C3 13.552 3.448 14 4 14C4.552 14 5 13.552 5 13V12C5 6.481 9.481 2 15 2C20.519 2 25 6.481 25 12V13C25 13.552 25.448 14 26 14C26.552 14 27 13.552 27 13Z" fill="#D6B968"/>
<path d="M19 27C19 25.344 17.656 24 16 24H14C12.344 24 11 25.344 11 27C11 28.656 12.344 30 14 30H16C17.656 30 19 28.656 19 27ZM17 27C17 27.552 16.552 28 16 28H14C13.448 28 13 27.552 13 27C13 26.448 13.448 26 14 26H16C16.552 26 17 26.448 17 27Z" fill="#D6B968"/>
<path d="M3.01382 21.1638C3.01382 21.1638 4.09582 27.9998 11.9998 27.9998C12.5518 27.9998 12.9998 27.5518 12.9998 26.9998C12.9998 26.4478 12.5518 25.9998 11.9998 25.9998C5.90282 25.9998 4.98582 20.8358 4.98582 20.8358C4.89582 20.2908 4.37982 19.9228 3.83582 20.0138C3.29082 20.1038 2.92282 20.6198 3.01382 21.1638Z" fill="#D6B968"/>
<circle opacity="0.2" cx="17.5" cy="17.5" r="12.5" fill="#D6B968"/>
</svg>
