<svg width="24" height="24" viewBox="0 0 24 24" fill="none" xmlns="http://www.w3.org/2000/svg">
<path d="M7 18V16.9724C7 16.2133 7.30096 15.4853 7.83691 14.9477C8.37286 14.4102 9.10007 14.1072 9.85911 14.105H10.5221" stroke="#FEBD11" stroke-width="1.5" stroke-linecap="round" stroke-linejoin="round"/>
<path d="M14.4507 14.105H15.1137C15.8727 14.1072 16.5999 14.4102 17.1359 14.9477C17.6718 15.4853 17.9728 16.2133 17.9728 16.9724V18" stroke="#FEBD11" stroke-width="1.5" stroke-linecap="round" stroke-linejoin="round"/>
<path d="M12.4857 14.5856C14.8565 14.5856 16.7785 12.6637 16.7785 10.2928C16.7785 7.92196 14.8565 6 12.4857 6C10.1148 6 8.19287 7.92196 8.19287 10.2928C8.19287 12.6637 10.1148 14.5856 12.4857 14.5856Z" stroke="#FEBD11" stroke-width="1.5" stroke-linecap="round" stroke-linejoin="round"/>
</svg>
