<svg width="16" height="16" viewBox="0 0 16 16" fill="none" xmlns="http://www.w3.org/2000/svg">
<path d="M7.99984 2.66675C5.05892 2.66675 2.6665 5.05916 2.6665 8.00008C2.6665 10.941 5.05892 13.3334 7.99984 13.3334C10.9408 13.3334 13.3332 10.941 13.3332 8.00008C13.3332 5.05916 10.9408 2.66675 7.99984 2.66675ZM10.703 6.86987L7.81405 9.75871C7.72738 9.84538 7.61361 9.889 7.49984 9.889C7.38607 9.889 7.2723 9.84538 7.18563 9.75871L5.74121 8.31429C5.56738 8.14054 5.56738 7.85962 5.74121 7.68587C5.91496 7.51204 6.1958 7.51204 6.36963 7.68587L7.49984 8.81608L10.0745 6.24145C10.2483 6.06763 10.5291 6.06763 10.703 6.24145C10.8767 6.4152 10.8767 6.69604 10.703 6.86987Z" fill="#FEBD11"/>
</svg>
